PathFileType	4	(X/Y/Z)	 0.11m3min.trc
DataRate	CameraRate	NumFrames	NumMarkers	Units	OrigDataRate	OrigDataStartFrame	OrigNumFrames
200	200	8	43	m	200	126	1000
Frame#	Time	C7			LSH			RSH			MAN			RASI			LASI			HIPR			HIPL			RPSI			LPSI			COX			RTHI1			RTHI2			RTHI3			RTHI4			RLKN			RMKN			RSHA1			RSHA2			RSHA3			RSHA4			RLMAL			RMMAL			RHEEL			RMET5			RMET1			RTOE			LTHI1			LTHI2			LTHI3			LTHI4			LLKN			LMKN			LSHA1			LSHA2			LSHA3			LSHA4			LLMAL			LMMAL			LHEEL			LMET5			LMET1			LTOE			
		X1	Y1	Z1	X2	Y2	Z2	X3	Y3	Z3	X4	Y4	Z4	X5	Y5	Z5	X6	Y6	Z6	X7	Y7	Z7	X8	Y8	Z8	X9	Y9	Z9	X10	Y10	Z10	X11	Y11	Z11	X12	Y12	Z12	X13	Y13	Z13	X14	Y14	Z14	X15	Y15	Z15	X16	Y16	Z16	X17	Y17	Z17	X18	Y18	Z18	X19	Y19	Z19	X20	Y20	Z20	X21	Y21	Z21	X22	Y22	Z22	X23	Y23	Z23	X24	Y24	Z24	X25	Y25	Z25	X26	Y26	Z26	X27	Y27	Z27	X28	Y28	Z28	X29	Y29	Z29	X30	Y30	Z30	X31	Y31	Z31	X32	Y32	Z32	X33	Y33	Z33	X34	Y34	Z34	X35	Y35	Z35	X36	Y36	Z36	X37	Y37	Z37	X38	Y38	Z38	X39	Y39	Z39	X40	Y40	Z40	X41	Y41	Z41	X42	Y42	Z42	X43	Y43	Z43	
126	0.6300	-0.321007	1.458282	-0.500378	-0.234699	1.453377	-0.646846	-0.262723	1.441520	-0.343408	-0.199355	1.411693	-0.490651	-0.169002	0.976672	-0.379678	-0.167545	0.979046	-0.612275	-0.212410	1.046754	-0.356933	-0.197952	1.048358	-0.632066	-0.333596	1.027422	-0.462896	-0.333271	1.028214	-0.536294	-0.333204	1.036025	-0.497597	-0.297752	0.804479	-0.329047	-0.287277	0.745842	-0.322903	-0.224684	0.754626	-0.308982	-0.226732	0.816175	-0.314177	-0.272414	0.538808	-0.335488	-0.244242	0.522573	-0.454827	-0.347820	0.369545	-0.335816	-0.351041	0.326486	-0.345738	-0.292162	0.324520	-0.325404	-0.296510	0.364442	-0.319277	-0.332967	0.187234	-0.348862	-0.293668	0.189516	-0.417150	-0.373251	0.184509	-0.397451	-0.262252	0.088801	-0.314535	-0.215639	0.085863	-0.371813	-0.200602	0.075253	-0.361590	-0.279460	0.829756	-0.679708	-0.264667	0.770753	-0.689263	-0.200148	0.780362	-0.687040	-0.207444	0.839226	-0.678467	-0.268576	0.544868	-0.681461	-0.251138	0.535805	-0.560552	-0.348889	0.383096	-0.691022	-0.350199	0.343130	-0.687264	-0.290664	0.342092	-0.699164	-0.294330	0.384303	-0.706425	-0.328291	0.205302	-0.689349	-0.314161	0.205524	-0.613393	-0.383382	0.207356	-0.648561	-0.270183	0.094115	-0.695883	-0.240656	0.085739	-0.626528	-0.227380	0.074985	-0.630202	
127	0.6350	-0.320604	1.459921	-0.500430	-0.234232	1.454582	-0.647175	-0.262236	1.442782	-0.343186	-0.198981	1.413076	-0.490712	-0.169246	0.977939	-0.379627	-0.167487	0.980407	-0.612244	-0.212596	1.047977	-0.356929	-0.197777	1.049729	-0.632044	-0.333867	1.028693	-0.462973	-0.333287	1.029505	-0.536384	-0.333238	1.037359	-0.497681	-0.297692	0.805591	-0.328986	-0.286916	0.747020	-0.322785	-0.224356	0.756136	-0.308941	-0.226712	0.817658	-0.314200	-0.271365	0.540178	-0.335413	-0.243358	0.524038	-0.454772	-0.347117	0.371077	-0.335647	-0.350473	0.328020	-0.345555	-0.291494	0.325961	-0.325506	-0.295790	0.365906	-0.319312	-0.332412	0.188644	-0.348824	-0.293328	0.190980	-0.417346	-0.372934	0.185314	-0.397523	-0.260682	0.091410	-0.314274	-0.214241	0.088660	-0.371592	-0.199037	0.078401	-0.361331	-0.279089	0.830939	-0.679646	-0.264152	0.771978	-0.689249	-0.199660	0.781766	-0.687108	-0.207093	0.840603	-0.678495	-0.267899	0.546158	-0.681205	-0.249941	0.537113	-0.560426	-0.348447	0.384407	-0.690841	-0.349786	0.344466	-0.686993	-0.290209	0.343374	-0.698666	-0.293834	0.385569	-0.706036	-0.327578	0.206506	-0.688700	-0.313348	0.206830	-0.612731	-0.382690	0.207908	-0.647637	-0.268245	0.096339	-0.695477	-0.238298	0.088321	-0.626294	-0.224865	0.077813	-0.630090	
128	0.6400	-0.320170	1.461329	-0.500473	-0.233715	1.455510	-0.647517	-0.261729	1.443768	-0.342961	-0.198515	1.414172	-0.490769	-0.169519	0.979007	-0.379603	-0.167459	0.981540	-0.612225	-0.212828	1.048983	-0.356943	-0.197651	1.050858	-0.632041	-0.334056	1.029724	-0.463119	-0.333304	1.030453	-0.536488	-0.333272	1.038359	-0.497778	-0.297648	0.806537	-0.328828	-0.286521	0.747992	-0.322642	-0.223993	0.757427	-0.308901	-0.226654	0.818926	-0.314204	-0.270324	0.541371	-0.335330	-0.242438	0.525353	-0.454674	-0.346428	0.372427	-0.335459	-0.349927	0.329395	-0.345355	-0.290856	0.327208	-0.325605	-0.295094	0.367195	-0.319335	-0.331900	0.189869	-0.348769	-0.293080	0.192268	-0.417545	-0.372690	0.185952	-0.397527	-0.259143	0.093776	-0.314088	-0.212955	0.091242	-0.371585	-0.197572	0.081277	-0.361279	-0.278689	0.831781	-0.679614	-0.263553	0.772866	-0.689225	-0.199102	0.782894	-0.687161	-0.206725	0.841706	-0.678544	-0.267227	0.547234	-0.680956	-0.248802	0.538287	-0.560294	-0.347945	0.385511	-0.690686	-0.349316	0.345592	-0.686771	-0.289693	0.344446	-0.698201	-0.293274	0.386632	-0.705654	-0.326893	0.207509	-0.688111	-0.312605	0.207911	-0.612127	-0.382036	0.208266	-0.646789	-0.266408	0.098351	-0.695184	-0.236093	0.090669	-0.626184	-0.222502	0.080432	-0.630093	
129	0.6450	-0.319697	1.462497	-0.500510	-0.233145	1.456168	-0.647869	-0.261200	1.444487	-0.342736	-0.197934	1.414990	-0.490821	-0.169816	0.979882	-0.379598	-0.167464	0.982453	-0.612226	-0.213112	1.049774	-0.356976	-0.197579	1.051745	-0.632055	-0.334182	1.030515	-0.463316	-0.333355	1.031062	-0.536605	-0.333306	1.039029	-0.497890	-0.297624	0.807329	-0.328583	-0.286105	0.748765	-0.322487	-0.223600	0.758499	-0.308869	-0.226563	0.819984	-0.314187	-0.269300	0.542373	-0.335244	-0.241503	0.526498	-0.454537	-0.345768	0.373589	-0.335254	-0.349415	0.330584	-0.345153	-0.290271	0.328258	-0.325709	-0.294426	0.368269	-0.319341	-0.331430	0.190903	-0.348694	-0.292923	0.193368	-0.417748	-0.372490	0.186421	-0.397464	-0.257647	0.095859	-0.314022	-0.211763	0.093532	-0.371736	-0.196207	0.083936	-0.361430	-0.278279	0.832306	-0.679618	-0.262893	0.773443	-0.689195	-0.198492	0.783761	-0.687187	-0.206350	0.842550	-0.678608	-0.266563	0.548100	-0.680717	-0.247735	0.539318	-0.560152	-0.347381	0.386408	-0.690537	-0.348785	0.346499	-0.686582	-0.289118	0.345312	-0.697771	-0.292653	0.387493	-0.705284	-0.326244	0.208307	-0.687586	-0.311937	0.208774	-0.611585	-0.381451	0.208442	-0.646061	-0.264657	0.100137	-0.694966	-0.234012	0.092792	-0.626135	-0.220282	0.082827	-0.630192	
130	0.6500	-0.319191	1.463423	-0.500537	-0.232545	1.456559	-0.648232	-0.260658	1.444933	-0.342516	-0.197407	1.415510	-0.490862	-0.170141	0.980563	-0.379602	-0.167506	0.983141	-0.612249	-0.213453	1.050352	-0.357029	-0.197574	1.052392	-0.632088	-0.334277	1.031049	-0.463547	-0.333469	1.031339	-0.536739	-0.333342	1.039366	-0.498016	-0.297631	0.807959	-0.328263	-0.285674	0.749337	-0.322332	-0.223194	0.759361	-0.308842	-0.226447	0.820828	-0.314155	-0.268297	0.543166	-0.335154	-0.240577	0.527454	-0.454370	-0.345142	0.374534	-0.335047	-0.348946	0.331561	-0.344958	-0.289755	0.329096	-0.325816	-0.293780	0.369121	-0.319321	-0.331007	0.191735	-0.348609	-0.292838	0.194270	-0.417948	-0.372344	0.186719	-0.397323	-0.256200	0.097676	-0.314017	-0.210707	0.095542	-0.372017	-0.194961	0.086331	-0.361764	-0.277871	0.832532	-0.679662	-0.262193	0.773729	-0.689161	-0.197848	0.784375	-0.687173	-0.205983	0.843137	-0.678679	-0.265899	0.548749	-0.680493	-0.246756	0.540194	-0.560004	-0.346762	0.387085	-0.690402	-0.348201	0.347189	-0.686422	-0.288494	0.345971	-0.697379	-0.291982	0.388148	-0.704933	-0.325634	0.208905	-0.687133	-0.311319	0.209421	-0.611103	-0.380933	0.208452	-0.645466	-0.263006	0.101716	-0.694845	-0.232077	0.094650	-0.626163	-0.218224	0.084979	-0.630362	
131	0.6550	-0.318660	1.464095	-0.500554	-0.231906	1.456688	-0.648593	-0.260109	1.445109	-0.342304	-0.196875	1.415744	-0.490894	-0.170491	0.981045	-0.379610	-0.167586	0.983605	-0.612299	-0.213852	1.050713	-0.357104	-0.197642	1.052788	-0.632138	-0.334385	1.031311	-0.463794	-0.333669	1.031298	-0.536891	-0.333371	1.039371	-0.498151	-0.297556	0.808336	-0.328021	-0.285240	0.749712	-0.322180	-0.222779	0.760003	-0.308824	-0.226317	0.821463	-0.314110	-0.267316	0.543748	-0.335055	-0.239661	0.528201	-0.454185	-0.344550	0.375260	-0.334841	-0.348517	0.332329	-0.344769	-0.289292	0.329698	-0.325925	-0.293170	0.369732	-0.319281	-0.330641	0.192354	-0.348525	-0.292804	0.194956	-0.418144	-0.372242	0.186843	-0.397128	-0.254821	0.099187	-0.314104	-0.209752	0.097286	-0.372454	-0.193834	0.088461	-0.362248	-0.277479	0.832479	-0.679747	-0.261479	0.773741	-0.689128	-0.197200	0.784737	-0.687115	-0.205645	0.843476	-0.678745	-0.265235	0.549176	-0.680290	-0.245868	0.540893	-0.559849	-0.346103	0.387548	-0.690271	-0.347576	0.347653	-0.686276	-0.287836	0.346410	-0.697032	-0.291275	0.388585	-0.704609	-0.325062	0.209293	-0.686751	-0.310754	0.209852	-0.610684	-0.380478	0.208288	-0.644996	-0.261447	0.103039	-0.694787	-0.230274	0.096272	-0.626250	-0.216312	0.086899	-0.630619	
132	0.6600	-0.318099	1.464514	-0.500566	-0.231242	1.456563	-0.648942	-0.259558	1.445022	-0.342109	-0.196322	1.415711	-0.490922	-0.170862	0.981327	-0.379618	-0.167703	0.983841	-0.612376	-0.214301	1.050856	-0.357198	-0.197779	1.052927	-0.632205	-0.334545	1.031288	-0.464051	-0.333959	1.030963	-0.537053	-0.333386	1.039045	-0.498291	-0.297399	0.808455	-0.327872	-0.284807	0.749878	-0.322043	-0.222368	0.760424	-0.308810	-0.226190	0.821884	-0.314043	-0.266349	0.544103	-0.334942	-0.238752	0.528707	-0.453992	-0.343985	0.375762	-0.334641	-0.348115	0.332885	-0.344588	-0.288869	0.330060	-0.326029	-0.292564	0.370095	-0.319210	-0.330324	0.192748	-0.348452	-0.292814	0.195412	-0.418340	-0.372183	0.186791	-0.396905	-0.253567	0.100405	-0.314250	-0.208914	0.098794	-0.372989	-0.192837	0.090324	-0.362846	-0.277119	0.832165	-0.679870	-0.260781	0.773494	-0.689100	-0.196568	0.784855	-0.687026	-0.205348	0.843575	-0.678802	-0.264556	0.549378	-0.680110	-0.245074	0.541392	-0.559692	-0.345417	0.387796	-0.690141	-0.346933	0.347896	-0.686139	-0.287164	0.346626	-0.696733	-0.290551	0.388800	-0.704319	-0.324528	0.209464	-0.686441	-0.310241	0.210065	-0.610328	-0.380078	0.207942	-0.644639	-0.259989	0.104102	-0.694793	-0.228645	0.097567	-0.626410	-0.214544	0.088555	-0.630917	
133	0.6650	-0.317506	1.464677	-0.500584	-0.230558	1.456187	-0.649281	-0.259008	1.444691	-0.341936	-0.195772	1.415423	-0.490949	-0.171253	0.981405	-0.379625	-0.167853	0.983839	-0.612477	-0.214788	1.050781	-0.357310	-0.197980	1.052804	-0.632289	-0.334783	1.030978	-0.464317	-0.334322	1.030360	-0.537213	-0.333381	1.038389	-0.498442	-0.297163	0.808312	-0.327826	-0.284381	0.749829	-0.321923	-0.221964	0.760637	-0.308799	-0.226071	0.822087	-0.313959	-0.265403	0.544224	-0.334810	-0.237856	0.528956	-0.453794	-0.343435	0.376024	-0.334457	-0.347736	0.333199	-0.344426	-0.288467	0.330170	-0.326109	-0.291960	0.370213	-0.319108	-0.330060	0.192909	-0.348401	-0.292859	0.195631	-0.418538	-0.372158	0.186555	-0.396675	-0.252439	0.101307	-0.314490	-0.208211	0.099965	-0.373568	-0.191985	0.091917	-0.363540	-0.276808	0.831607	-0.680020	-0.260127	0.772999	-0.689085	-0.195983	0.784727	-0.686925	-0.205107	0.843423	-0.678849	-0.263855	0.549349	-0.679964	-0.244352	0.541667	-0.559540	-0.344719	0.387827	-0.690007	-0.346282	0.347920	-0.686009	-0.286492	0.346614	-0.696483	-0.289824	0.388789	-0.704067	-0.324036	0.209414	-0.686197	-0.309775	0.210049	-0.610036	-0.379726	0.207406	-0.644379	-0.258659	0.104895	-0.694857	-0.227125	0.098600	-0.626614	-0.212944	0.089845	-0.631228	
